<svg width="48" height="48" viewBox="0 0 48 48" fill="none" xmlns="http://www.w3.org/2000/svg">
<path d="M38.3154 18.6712C39.3341 19.385 40 20.561 40 21.891C40 22.6005 39.8064 23.2969 39.4395 23.9066L35.3866 30.6427L39.5985 34.7506C40.1208 35.26 40.1268 36.0919 39.6118 36.6086C39.3622 36.859 39.0215 37 38.666 37H16.5912C14.4882 37 12.7657 35.3887 12.6168 33.3462C13.2105 33.7615 13.9229 34.021 14.6938 34.0648L14.9268 34.0714H26.0861C26.1508 34.0714 26.2154 34.0704 26.2798 34.0686L34.6832 34.0681L31.6588 31.1183L35.092 25.4109L37.7648 20.9772C38.0914 20.4354 38.2809 19.8252 38.319 19.1981L38.3262 18.9623C38.3262 18.8644 38.3225 18.7673 38.3154 18.6712ZM31.3994 11C33.6054 11 35.3937 12.7647 35.3937 14.9415C35.3937 15.6507 35.1998 16.3468 34.8323 16.9564L28.8752 26.8395C27.6752 28.8305 25.5012 30.0505 23.1536 30.0505H11.9943C9.78831 30.0505 8 28.2859 8 26.109C8 25.3998 8.19393 24.7037 8.56134 24.0942L14.5185 14.211C15.7185 12.2201 17.8925 11 20.2401 11H31.3994ZM31.3994 13.9319H20.2401C18.9551 13.9319 17.7654 14.5862 17.0923 15.6549L17.0548 15.7158L11.0976 25.5989C11.0043 25.7539 10.9552 25.9299 10.9552 26.109C10.9552 26.6495 11.3946 27.0963 11.9523 27.1178L11.9943 27.1186H23.1536C24.4386 27.1186 25.6282 26.4643 26.3014 25.3957L26.3389 25.3347L32.2961 15.4516C32.3894 15.2967 32.4385 15.1206 32.4385 14.9415C32.4385 14.401 31.9991 13.9542 31.4414 13.9327L31.3994 13.9319Z" fill="#267FFF"/>
</svg>
