<?xml version="1.0" standalone="no"?><!DOCTYPE svg PUBLIC "-//W3C//DTD SVG 1.1//EN" "http://www.w3.org/Graphics/SVG/1.1/DTD/svg11.dtd"><svg t="1774487602001" class="icon" viewBox="0 0 1024 1024" version="1.1" xmlns="http://www.w3.org/2000/svg" p-id="7441" xmlns:xlink="http://www.w3.org/1999/xlink" width="200" height="200"><path d="M576.2 757.2c-21.5 7.9-43.6 13.9-66.2 17.7-62.4 10.7-124.3 8.5-185.5-8.1-4.7-1.3-8.2 0.1-12.1 2.1-33.7 16.9-67.5 33.8-101.2 50.8-10.8 5.5-21.2 6-30.9-1.3-10.2-7.6-13-18-11.1-30.8 4.4-28.5 7.7-57.2 11.6-85.8 0.7-5-2.9-7-5.6-9.7-29.7-28.3-56.4-59.1-75.9-95.4C37.6 482 58 347.2 151 252.8c54.9-55.7 121.3-90.2 197.6-105.5 98.6-19.8 193.4-8.2 282.5 39.3 69 36.8 121.7 89.8 152.9 162.3 17.8 41.2 25 84.4 21.9 130.8-9.7-7.7-19.1-14.2-30.8-15.4-11.9-1.6-23.9 0.7-34.4 6.5 1.1-24.9-2.1-49.7-9.2-73.6-18.1-58.9-54.7-104-105.1-138.3-52.7-35.9-111.5-53.6-174.9-56.3-79.6-3.4-152.8 16-217.2 63.6-60.4 44.8-98.3 103.7-103.9 180-4.3 59.1 14.5 111.5 50.8 158 14.6 18.8 31.7 35.5 50.8 49.7 12.4 9.1 16.3 20.4 12.2 35.1-4.8 17-9.1 34.1-13.5 51.2-0.8 3.1-2.4 6.8 0.6 9.4 3.5 3 6.2-0.5 8.9-2.1 20.3-11.8 40.6-23.5 60.6-35.7 12.2-7.4 24.4-9.5 38.4-5.5 63.6 18.1 131 17.8 194.5-0.7 6.2-1.8 8.8-2.4 9.1 5.9 0.9 21.6 13.3 35.7 33.4 45.7z m0 0" fill="#0081EF" p-id="7442"></path><path d="M714.3 586.4c-5.2-2.7-10.3-2-14.8 2.8-24.7 26.4-57.4 43.8-93.1 49.4-24.6 4.1-43.2 29.1-41 52.8 2.6 27.8 24.1 48.4 50.9 48.7 23.9 0.3 47-17.3 50.9-40.2 5.5-35.4 22.6-68.1 48.5-92.8 2.2-1.7 3.8-4 4.6-6.6 1.2-6.2-0.8-11.4-6-14.1z" fill="#FECB00" p-id="7443"></path><path d="M955.1 666.3c-11.4-21-32.3-31.8-54.6-28.2-22 3.6-38.7 20.7-42.7 44.3-3.8 21.6-12 42.3-24.3 60.5-7.1 10.3-15.2 19.8-24.2 28.5-3.7 3.7-5.5 8-3.7 13.3 1.5 4.5 5.6 7.6 10.3 7.9 5.4 0.7 8.9-2.7 12.4-6.3 24.6-25.1 53.9-41.2 88.9-46.5 24.7-3.8 42.8-25.5 42.8-51.7 0.3-7.5-1.4-15-4.9-21.8z" fill="#0082EF" p-id="7444"></path><path d="M861.1 623.9c-25.7-24.9-41.8-54.8-47.5-90.2-4.2-26.1-28-43.9-55.5-42.1-24.7 1.7-46.4 25-46.6 51.5 0.8 7.9 2.1 16.8 6.9 24.9 8 13.6 19.7 22.8 35.1 25.3 35.8 5.9 65.8 22.3 91.1 47.9 7 7.2 13.6 7.3 19 1.7 5.2-5.6 4.4-12.3-2.5-19z" fill="#2DBB00" p-id="7445"></path><path d="M773.4 784.6c-36.2-6.6-67.3-22.3-92.7-48.9-2.3-2.4-4.9-4.7-8.5-4.7-5.3-0.1-9.8 1.8-12 6.7-2.6 5.9-0.6 11 4.1 15.5 25.5 24.6 41.7 54 47.5 89.3 4.8 29 28.5 45.9 58.1 43.1 24.4-2.3 43.9-25.2 43.9-51.3-0.1-23.9-16.5-45.3-40.4-49.7z" fill="#F96500" p-id="7446"></path></svg>